<?xml version="1.0" encoding="UTF-8"?><!DOCTYPE svg PUBLIC "-//W3C//DTD SVG 1.1//EN" "http://www.w3.org/Graphics/SVG/1.1/DTD/svg11.dtd"><svg xmlns="http://www.w3.org/2000/svg" xmlns:xlink="http://www.w3.org/1999/xlink" version="1.1" id="Layer_1" x="0px" y="0px" width="24px" height="24px" viewBox="0 0 24 24" xml:space="preserve"><path d="M19.6 23.5H4.2c-2.1 0-3.8-1.7-3.8-3.8V4.3C.4 2.2 2.1.5 4.2.5h15.3c2.1 0 3.8 1.7 3.8 3.8v15.3c.1 2.2-1.6 3.9-3.7 3.9zM4.2 1.5c-1.6 0-2.8 1.3-2.8 2.8v15.3c0 1.6 1.3 2.8 2.8 2.8h15.3c1.6 0 2.8-1.3 2.8-2.8V4.3c0-1.6-1.3-2.8-2.8-2.8H4.2z"/><path d="M15.3 13.3H9.1c-1.4 0-2.5-1.1-2.5-2.5V7.9c0-1.4 1.1-2.5 2.5-2.5h6.2c1.4 0 2.5 1.1 2.5 2.5v2.8c0 1.5-1.1 2.6-2.5 2.6zM9.1 6.4c-.8 0-1.5.7-1.5 1.5v2.8c0 .8.7 1.5 1.5 1.5h6.2c.8 0 1.5-.7 1.5-1.5V7.9c0-.8-.7-1.5-1.5-1.5H9.1z"/><path d="M15.3 18.6H9.1c-1.4 0-2.5-1.1-2.5-2.5 0-.3.2-.5.5-.5s.5.2.5.5c0 .8.7 1.5 1.5 1.5h6.2c.8 0 1.5-.7 1.5-1.5v-5.3c0-.3.2-.5.5-.5s.5.2.5.5v5.3c0 1.3-1.1 2.5-2.5 2.5z"/><path d="M17.3 12.2c-.1 0-.3 0-.4-.1-.2-.2-.2-.5 0-.7L19.3 9c.2-.2.5-.2.7 0s.2.5 0 .7l-2.4 2.4c0 .1-.1.1-.3.1z"/><metadata><rdf:RDF xmlns:rdf="http://www.w3.org/1999/02/22-rdf-syntax-ns#" xmlns:rdfs="http://www.w3.org/2000/01/rdf-schema#" xmlns:dc="http://purl.org/dc/elements/1.1/"><rdf:Description about="https://iconscout.com/legal#licenses" dc:title="goodreads" dc:description="goodreads" dc:publisher="Iconscout" dc:date="2018-01-30" dc:format="image/svg+xml" dc:language="en"><dc:creator><rdf:Bag><rdf:li>Roundicons.com</rdf:li></rdf:Bag></dc:creator></rdf:Description></rdf:RDF></metadata></svg>