<?xml version="1.0" encoding="UTF-8"?><svg xmlns="http://www.w3.org/2000/svg" xmlns:xlink="http://www.w3.org/1999/xlink" viewBox="0 0 24 24" version="1.1"><path d="M12 2C6.5 2 2 6.5 2 12s4.5 10 10 10 10-4.5 10-10S17.5 2 12 2zm4.3 15c-.198 0-.3-.102-.5-.2-1.5-.902-3.402-1.402-5.402-1.402-1.097 0-2.296.204-3.296.403-.204 0-.403.097-.5.097a.683.683 0 0 1-.704-.699c0-.398.204-.699.602-.699 1.3-.3 2.602-.5 4-.5 2.3 0 4.398.602 6.2 1.602.198.199.402.296.402.699-.204.5-.5.699-.801.699zm1.098-2.8c-.199 0-.398-.098-.597-.2-1.7-1.102-4.102-1.7-6.7-1.7-1.3 0-2.5.2-3.402.4-.199.1-.3.1-.5.1-.5 0-.8-.402-.8-.8 0-.5.203-.7.703-.898C7.3 10.8 8.5 10.5 10.199 10.5c2.801 0 5.403.7 7.602 2 .3.2.5.5.5.8-.102.5-.403.9-.903.9zM18.7 11c-.199 0-.3-.102-.597-.2-2-1.1-4.903-1.8-7.704-1.8C9 9 7.5 9.2 6.2 9.5c-.199 0-.3.102-.597.102-.602.097-1-.403-1-1 0-.602.296-.903.699-1C6.898 7.199 8.6 7 10.398 7 13.5 7 16.7 7.7 19.2 9c.301.2.602.5.602 1-.102.602-.5 1-1.102 1z" id="surface1"/><metadata><rdf:RDF xmlns:rdf="http://www.w3.org/1999/02/22-rdf-syntax-ns#" xmlns:rdfs="http://www.w3.org/2000/01/rdf-schema#" xmlns:dc="http://purl.org/dc/elements/1.1/"><rdf:Description about="https://iconscout.com/legal#licenses" dc:title="spotify" dc:description="spotify" dc:publisher="Iconscout" dc:date="2018-06-22" dc:format="image/svg+xml" dc:language="en"><dc:creator><rdf:Bag><rdf:li>Icons8</rdf:li></rdf:Bag></dc:creator></rdf:Description></rdf:RDF></metadata></svg>